<svg width="40" height="40" viewBox="0 0 40 40" fill="none" xmlns="http://www.w3.org/2000/svg">
<g id="Img" clip-path="url(#clip0_578_295)">
<g id="Group">
<path id="Vector" d="M39.6745 29.5027H0.325517C0.144552 29.5027 0 29.6475 0 29.8282C0 30.0092 0.144552 30.1537 0.325517 30.1537H39.6745C39.8554 30.1537 40 30.0092 40 29.8282C40 29.6475 39.8554 29.5027 39.6745 29.5027Z" fill="url(#paint0_linear_578_295)"/>
<path id="Vector_2" d="M36.7451 30.19C36.9984 30.19 37.2155 29.9732 37.2155 29.72V8.16494C37.2155 7.83942 36.9984 7.58618 36.709 7.58618H3.61656C3.32746 7.58618 3.11035 7.83942 3.11035 8.16494V29.6838C3.11035 29.9371 3.32745 30.1539 3.5807 30.1539H36.7448V30.19H36.7451Z" fill="#5B5BF7"/>
<path id="Vector_3" d="M36.4195 30.19C36.6725 30.19 36.8896 29.9732 36.8896 29.72V8.16494C36.8896 7.83942 36.6725 7.58618 36.3831 7.58618H3.291C3.00162 7.58618 2.78479 7.83942 2.78479 8.16494V29.6838C2.78479 29.9371 3.00162 30.1539 3.25486 30.1539H36.4195V30.19Z" fill="url(#paint1_linear_578_295)"/>
<path id="Vector_4" d="M36.3831 7.58618H3.291C3.00162 7.58618 2.78479 7.80328 2.78479 8.09239V8.88825H36.9258V8.09239C36.8896 7.83942 36.6725 7.58618 36.3831 7.58618Z" fill="#5B5BF7" fill-opacity="0.47"/>
<path id="Vector_5" d="M23.7252 23.6443H15.9495C15.6601 23.6443 15.443 23.4275 15.443 23.1381V21.7638C15.443 21.4744 15.6601 21.2576 15.9495 21.2576H23.7252C24.0146 21.2576 24.2314 21.4744 24.2314 21.7638V23.1381C24.2314 23.4275 24.0146 23.6443 23.7252 23.6443Z" fill="url(#paint2_linear_578_295)"/>
<path id="Vector_6" d="M12.984 23.6445H5.17186C4.88275 23.6445 4.66565 23.4276 4.66565 23.1382V21.7639C4.66565 21.4745 4.88275 21.2577 5.17186 21.2577H12.9479C13.237 21.2577 13.4541 21.4745 13.4541 21.7639V23.1382C13.4902 23.4276 13.237 23.6445 12.984 23.6445ZM34.8281 23.6445H27.0163C26.7269 23.6445 26.5101 23.4276 26.5101 23.1382V21.7639C26.5101 21.4745 26.7269 21.2577 27.0163 21.2577H34.8281C35.1175 21.2577 35.3346 21.4745 35.3346 21.7639V23.1382C35.2985 23.4276 35.0814 23.6445 34.8281 23.6445ZM19.8193 19.8461C22.336 19.8461 24.3765 17.8061 24.3765 15.2891C24.3765 12.7725 22.336 10.7322 19.8193 10.7322C17.3026 10.7322 15.2623 12.7725 15.2623 15.2894C15.2623 17.8061 17.3023 19.8461 19.8193 19.8461Z" fill="#8F8FD0"/>
<path id="Vector_7" d="M20.9043 16.1212L20.6872 14.7468H18.9876L18.7705 16.1212H20.9043Z" fill="url(#paint3_linear_578_295)"/>
<path id="Vector_8" d="M19.8193 15.5787C20.3616 15.5787 20.8317 15.8317 20.8317 15.8317L20.7594 15.2893H19.6744L19.8193 15.5787Z" fill="url(#paint4_linear_578_295)"/>
<path id="Vector_9" d="M18.7705 15.2535L18.8063 15.2896C19.096 15.4706 19.4574 15.6151 19.819 15.6151C20.2171 15.6151 20.5787 15.4706 20.9043 15.2535C21.3743 14.928 21.6637 14.3853 21.6637 13.7707C21.6637 12.758 20.8679 11.926 19.8554 11.926C18.8427 11.926 18.0107 12.7219 17.9746 13.7346C17.9746 14.3492 18.3001 14.8918 18.7705 15.2535Z" fill="url(#paint5_radial_578_295)"/>
<path id="Vector_10" d="M23.7614 16.6279C23.4 16.0491 22.749 15.7236 22.0618 15.7236C21.8808 15.7236 21.6999 15.7598 21.5192 15.7959L21.0491 15.9407C20.2682 16.1577 19.443 16.1577 18.6621 15.9407L18.1917 15.7959C18.011 15.76 17.8304 15.7236 17.6494 15.7236C16.9622 15.7236 16.3115 16.0853 15.9495 16.6279C15.8411 16.7725 15.7688 16.9534 15.6963 17.1341C16.4199 18.7256 18.011 19.8467 19.8916 19.8467C21.7724 19.8467 23.3636 18.7256 24.0869 17.1341C23.9424 16.9534 23.8701 16.7725 23.7614 16.6279Z" fill="url(#paint6_radial_578_295)"/>
<path id="Vector_11" d="M9.07784 19.8461C11.5945 19.8461 13.6348 17.8061 13.6348 15.2891C13.6348 12.7725 11.5945 10.7322 9.07756 10.7322C6.56115 10.7322 4.52087 12.7725 4.52087 15.2894C4.52087 17.8061 6.56087 19.8461 9.07784 19.8461Z" fill="#8F8FD0"/>
<path id="Vector_12" d="M10.1269 16.1212L9.9459 14.7468H8.20962L8.02893 16.1212H10.1263H10.1269Z" fill="url(#paint7_linear_578_295)"/>
<path id="Vector_13" d="M9.07778 15.5787C9.6204 15.5787 10.0905 15.8317 10.0905 15.8317L10.0182 15.2893H8.93323L9.07778 15.5787Z" fill="url(#paint8_linear_578_295)"/>
<path id="Vector_14" d="M8.02898 15.2535L8.06512 15.2896C8.3545 15.4706 8.71616 15.6151 9.07781 15.6151C9.47561 15.6151 9.83726 15.4706 10.1628 15.2535C10.6328 14.928 10.9222 14.3853 10.9222 13.7707C10.9222 12.758 10.1266 11.926 9.11395 11.926C8.10154 11.926 7.26954 12.7219 7.2334 13.7346C7.2334 14.3492 7.52278 14.8918 8.02898 15.2535Z" fill="url(#paint9_radial_578_295)"/>
<path id="Vector_15" d="M13.0198 16.6279C12.6582 16.0491 12.0071 15.7236 11.32 15.7236C11.1393 15.7236 10.9583 15.7598 10.7776 15.7959L10.3073 15.9407C9.52638 16.1577 8.70111 16.1577 7.92023 15.9407L7.45016 15.7959C7.26947 15.76 7.08851 15.7236 6.90782 15.7236C6.22037 15.7236 5.56961 16.0853 5.20795 16.6279C5.09926 16.7725 5.02699 16.9534 4.95471 17.1341C5.67802 18.7256 7.26919 19.8467 9.15002 19.8467C11.0306 19.8467 12.622 18.7256 13.3453 17.1341C13.2005 16.9534 13.1282 16.7725 13.0198 16.6279Z" fill="url(#paint10_radial_578_295)"/>
<path id="Vector_16" d="M30.9222 19.8461C33.4389 19.8461 35.4792 17.8061 35.4792 15.2891C35.4792 12.7725 33.4389 10.7322 30.9222 10.7322C28.4055 10.7322 26.3652 12.7725 26.3652 15.2894C26.3652 17.8061 28.4055 19.8461 30.9222 19.8461Z" fill="#8F8FD0"/>
<path id="Vector_17" d="M31.9713 16.1212L31.7903 14.7468H30.0546L29.8737 16.1212H31.9713Z" fill="url(#paint11_linear_578_295)"/>
<path id="Vector_18" d="M30.9225 15.5787C31.4649 15.5787 31.9352 15.8317 31.9352 15.8317L31.8627 15.2893H30.7777L30.9225 15.5787Z" fill="url(#paint12_linear_578_295)"/>
<path id="Vector_19" d="M29.8375 15.2535L29.8736 15.2896C30.163 15.4706 30.5247 15.6151 30.8863 15.6151C31.2841 15.6151 31.6458 15.4706 31.9713 15.2535C32.4414 14.928 32.7307 14.3853 32.7307 13.7707C32.7307 12.758 31.9351 11.926 30.9225 11.926C29.9098 11.926 29.0778 12.7219 29.0416 13.7346C29.0778 14.3492 29.3671 14.8918 29.8375 15.2535Z" fill="url(#paint13_radial_578_295)"/>
<path id="Vector_20" d="M34.8645 16.6279C34.5029 16.0491 33.8521 15.7236 33.165 15.7236C32.984 15.7236 32.8033 15.7598 32.6223 15.7959L32.1523 15.9407C31.3714 16.1577 30.5461 16.1577 29.7652 15.9407L29.2952 15.7959C29.1142 15.76 28.9335 15.7236 28.7525 15.7236C28.0654 15.7236 27.4146 16.0853 27.0527 16.6279C26.9443 16.7725 26.872 16.9534 26.7994 17.1341C27.523 18.7256 29.1142 19.8467 30.9947 19.8467C32.8756 19.8467 34.4667 18.7256 35.1901 17.1341C35.0455 16.9534 34.9732 16.7725 34.8645 16.6279Z" fill="url(#paint14_radial_578_295)"/>
<path id="Vector_21" d="M4.6654 8.27302C4.6654 8.41785 4.55698 8.56268 4.37602 8.56268C4.23147 8.56268 4.08691 8.45399 4.08691 8.27302C4.08691 8.09233 4.19533 7.98364 4.37602 7.98364C4.52085 7.98364 4.66567 8.09233 4.66567 8.2733L4.6654 8.27302Z" fill="url(#paint15_radial_578_295)"/>
<path id="Vector_22" d="M3.76138 8.27302C3.76138 8.41785 3.65269 8.56268 3.47172 8.56268C3.32717 8.56268 3.18262 8.45399 3.18262 8.27302C3.18262 8.09233 3.29103 7.98364 3.472 7.98364C3.65269 7.98364 3.76138 8.09206 3.76138 8.27302Z" fill="url(#paint16_radial_578_295)"/>
<path id="Vector_23" d="M21.6273 29.2132H22.0973V30.1174H22.5316V31.0214H23.0016V31.9257H23.9056V31.0214H23.4717V30.1174H23.0016V29.2132H22.5316V27.8388H23.9056V27.3687H23.4717V26.9348H23.0016V26.4645H22.5316V26.0305H22.0973V25.5605H21.6276V25.1265H21.1936V24.6562H20.7227V24.2223H20.2888V23.7522H19.8187V29.6468H20.2888V29.2129H20.7227V28.7428H21.1931V28.3089H21.627V29.2129L21.6273 29.2132Z" fill="white"/>
<path id="Vector_24" d="M19.8193 29.6473H20.2894V30.1174H19.8193V30.5875H19.3492V22.8479H19.8193V23.3182H20.2894V23.7883H19.8193V29.6473ZM20.7236 23.7522H20.2532V24.2222H20.7233L20.7236 23.7522ZM21.1937 24.6562V24.1861H20.7236V24.6562H21.1937ZM21.6276 24.6562H21.1575V25.1265H21.6276V24.6562ZM21.6276 25.5605H22.0977V25.0904H21.6276V25.5605ZM23.472 26.9348V27.4049H23.9423V26.9351L23.472 26.9348ZM22.5319 25.5605H22.0615V26.0305H22.5319V25.5605ZM23.472 26.9348V26.4647H23.0019V26.9348H23.472ZM22.5319 26.0305V26.4645L23.0019 26.4647V25.9944H22.5319V26.0305ZM22.0979 30.4068V31.0217H22.5319V30.0813H22.0615V30.4068H22.0979ZM23.9062 30.1174H23.4359V31.0578H23.9062V30.1174ZM20.2894 29.6473H20.7236V29.177H20.2532V29.6473H20.2894ZM23.472 29.6473V29.177H23.0019V30.1174H23.472V29.6473ZM24.3763 27.8388V27.3687H23.9062V27.8388H22.5319V29.2496H23.0019V28.3094H24.8102V27.8391L24.3763 27.8388ZM23.9062 31.3108V31.9618H24.3763V31.0217H23.9062V31.3108ZM21.1937 28.7431H20.7236V29.2131H21.6637V28.273H21.1937V28.7431ZM22.0979 29.5387V29.2131H21.6276V30.1174H22.0977V29.5387H22.0979ZM23.0019 31.9257V32.3958H23.9423V31.9257H23.0019ZM23.0019 31.3833V31.0217H22.5319V31.9618H23.0019V31.3833Z" fill="#BDBDFC"/>
</g>
</g>
<defs>
<linearGradient id="paint0_linear_578_295" x1="-0.00606897" y1="29.839" x2="40.0061" y2="29.839" gradientUnits="userSpaceOnUse">
<stop stop-color="#BDBDFC" stop-opacity="0"/>
<stop offset="0.309" stop-color="#BDBDFC"/>
<stop offset="0.374" stop-color="#BDBDFC"/>
<stop offset="0.75" stop-color="#5B5BF7"/>
<stop offset="1" stop-color="#BDBDFC" stop-opacity="0"/>
</linearGradient>
<linearGradient id="paint1_linear_578_295" x1="19.8273" y1="30.2229" x2="19.8273" y2="7.59832" gradientUnits="userSpaceOnUse">
<stop stop-color="#BDBDFC"/>
<stop offset="0.61" stop-color="#BDBDFC"/>
<stop offset="0.89" stop-color="#BDBDFC"/>
<stop offset="1" stop-color="#BDBDFC"/>
</linearGradient>
<linearGradient id="paint2_linear_578_295" x1="15.4397" y1="22.4647" x2="24.2273" y2="22.4647" gradientUnits="userSpaceOnUse">
<stop stop-color="#F7B0B2"/>
<stop offset="1" stop-color="#F66DBC"/>
</linearGradient>
<linearGradient id="paint3_linear_578_295" x1="18.7791" y1="15.4271" x2="20.8877" y2="15.4271" gradientUnits="userSpaceOnUse">
<stop offset="0.52" stop-color="#F7B0B2"/>
<stop offset="0.642" stop-color="#EEA5A8"/>
<stop offset="0.856" stop-color="#D5878D"/>
<stop offset="1" stop-color="#C17078"/>
</linearGradient>
<linearGradient id="paint4_linear_578_295" x1="20.2725" y1="15.8579" x2="20.2725" y2="15.3265" gradientUnits="userSpaceOnUse">
<stop stop-color="#A06069" stop-opacity="0"/>
<stop offset="1" stop-color="#A06069"/>
</linearGradient>
<radialGradient id="paint5_radial_578_295" cx="0" cy="0" r="1" gradientUnits="userSpaceOnUse" gradientTransform="translate(19.411 13.1448) scale(2.1864)">
<stop offset="0.677" stop-color="#F7B0B2"/>
<stop offset="0.797" stop-color="#E69B9F"/>
<stop offset="1" stop-color="#C17078"/>
</radialGradient>
<radialGradient id="paint6_radial_578_295" cx="0" cy="0" r="1" gradientUnits="userSpaceOnUse" gradientTransform="translate(19.5793 15.7228) scale(5.54077 5.54077)">
<stop offset="0.677" stop-color="#5B5BF7"/>
<stop offset="0.802" stop-color="#5B5BF7"/>
<stop offset="1" stop-color="#3D00B7"/>
</radialGradient>
<linearGradient id="paint7_linear_578_295" x1="8.02728" y1="15.4271" x2="10.136" y2="15.4271" gradientUnits="userSpaceOnUse">
<stop offset="0.52" stop-color="#BDBDFC"/>
<stop offset="0.645" stop-color="#BDBDFC"/>
<stop offset="0.865" stop-color="#5B5BF7"/>
<stop offset="1" stop-color="#3D00B7"/>
</linearGradient>
<linearGradient id="paint8_linear_578_295" x1="9.52081" y1="15.8579" x2="9.52081" y2="15.3265" gradientUnits="userSpaceOnUse">
<stop stop-color="#3D00B7" stop-opacity="0"/>
<stop offset="1" stop-color="#3D00B7"/>
</linearGradient>
<radialGradient id="paint9_radial_578_295" cx="0" cy="0" r="1" gradientUnits="userSpaceOnUse" gradientTransform="translate(8.65933 13.1448) scale(2.1864)">
<stop offset="0.677" stop-color="#BDBDFC"/>
<stop offset="0.801" stop-color="#5B5BF7"/>
<stop offset="1" stop-color="#5B5BF7"/>
</radialGradient>
<radialGradient id="paint10_radial_578_295" cx="0" cy="0" r="1" gradientUnits="userSpaceOnUse" gradientTransform="translate(8.82754 15.7228) scale(5.54077)">
<stop offset="0.677" stop-color="#5B5BF7"/>
<stop offset="0.804" stop-color="#5B5BF7"/>
<stop offset="1" stop-color="#3D00B7"/>
</radialGradient>
<linearGradient id="paint11_linear_578_295" x1="29.864" y1="15.4271" x2="31.9727" y2="15.4271" gradientUnits="userSpaceOnUse">
<stop offset="0.52" stop-color="#BDBDFC"/>
<stop offset="0.645" stop-color="#BDBDFC"/>
<stop offset="0.865" stop-color="#5B5BF7"/>
<stop offset="1" stop-color="#3D00B7"/>
</linearGradient>
<linearGradient id="paint12_linear_578_295" x1="31.3576" y1="15.8579" x2="31.3576" y2="15.3265" gradientUnits="userSpaceOnUse">
<stop stop-color="#3D00B7" stop-opacity="0"/>
<stop offset="1" stop-color="#3D00B7"/>
</linearGradient>
<radialGradient id="paint13_radial_578_295" cx="0" cy="0" r="1" gradientUnits="userSpaceOnUse" gradientTransform="translate(30.4962 13.1448) scale(2.1864)">
<stop offset="0.677" stop-color="#BDBDFC"/>
<stop offset="0.801" stop-color="#5B5BF7"/>
<stop offset="1" stop-color="#3D00B7"/>
</radialGradient>
<radialGradient id="paint14_radial_578_295" cx="0" cy="0" r="1" gradientUnits="userSpaceOnUse" gradientTransform="translate(30.6643 15.7228) scale(5.54075 5.54074)">
<stop offset="0.677" stop-color="#5B5BF7"/>
<stop offset="0.804" stop-color="#5B5BF7"/>
<stop offset="1" stop-color="#3D00B7"/>
</radialGradient>
<radialGradient id="paint15_radial_578_295" cx="0" cy="0" r="1" gradientUnits="userSpaceOnUse" gradientTransform="translate(4.30898 8.18695) scale(0.282135)">
<stop stop-color="#5B5BF7"/>
<stop offset="0.334" stop-color="#5B5BF7"/>
<stop offset="0.557" stop-color="#5B5BF7"/>
<stop offset="0.747" stop-color="#5B5BF7"/>
<stop offset="0.918" stop-color="#3D00B7"/>
<stop offset="1" stop-color="#3D00B7"/>
</radialGradient>
<radialGradient id="paint16_radial_578_295" cx="0" cy="0" r="1" gradientUnits="userSpaceOnUse" gradientTransform="translate(3.43696 8.18695) scale(0.282135)">
<stop stop-color="#01CDBE"/>
<stop offset="0.265" stop-color="#02CABE"/>
<stop offset="0.441" stop-color="#04C1BE"/>
<stop offset="0.592" stop-color="#08B2BF"/>
<stop offset="0.728" stop-color="#0D9DC0"/>
<stop offset="0.855" stop-color="#1481C1"/>
<stop offset="0.972" stop-color="#1D60C3"/>
<stop offset="1" stop-color="#1F57C3"/>
</radialGradient>
<clipPath id="clip0_578_295">
<rect width="40" height="40" fill="white"/>
</clipPath>
</defs>
</svg>
