<svg width="41" height="40" viewBox="0 0 41 40" fill="none" xmlns="http://www.w3.org/2000/svg">
<g id="Img">
<g id="Group">
<path id="Vector" d="M38.7776 14.956C37.8938 15.036 37.211 15.7593 37.171 16.6429L37.0905 18.3301L37.0102 16.6429C36.9702 15.7593 36.2872 15.0363 35.4036 14.956C36.2872 14.8758 36.9702 14.1527 37.0102 13.2689L37.0905 11.7828L37.171 13.2689C37.211 14.1527 37.8938 14.8758 38.7776 14.956ZM34.1586 10.417L34.1989 10.7384C34.2392 11.0195 34.5203 11.18 34.7614 11.0595L35.0825 10.8989L34.8014 11.0998C34.5603 11.2603 34.5603 11.5817 34.8014 11.7425L35.0825 11.9433L34.7614 11.7825C34.5203 11.662 34.1989 11.8228 34.1989 12.1039L34.1586 12.5458V12.1844C34.1186 11.9031 33.8375 11.7425 33.5964 11.8631L33.275 12.0236L33.5561 11.8228C33.7972 11.6622 33.7972 11.3409 33.5561 11.18L33.275 10.9392L33.5964 11.0998C33.8375 11.2203 34.1586 11.0595 34.1586 10.7784V10.417Z" fill="#BDBDFC"/>
<path id="Vector_2" d="M11.0223 18.8518C8.77293 19.2937 6.60383 20.0568 4.59555 21.1415C3.18976 21.9045 2.14535 23.1497 1.62314 24.6358C0.819828 26.9255 1.34204 29.4559 3.02921 31.2234C4.39472 32.6692 6.20217 33.593 8.21072 33.7939C10.5804 34.0752 12.9503 33.9947 15.3202 33.553L13.6331 18.3296L11.0223 18.8518Z" fill="url(#paint0_radial_578_328)"/>
<path id="Vector_3" d="M11.0223 18.8518C8.77293 19.2937 6.60383 20.0568 4.59555 21.1415C3.18976 21.9045 2.14535 23.1497 1.62314 24.6358C0.819828 26.9255 1.34204 29.4559 3.02921 31.2234C4.39472 32.6692 6.20217 33.593 8.21072 33.7939C10.5804 34.0752 12.9503 33.9947 15.3202 33.553L13.6331 18.3296L11.0223 18.8518Z" fill="url(#paint1_radial_578_328)"/>
<path id="Vector_4" d="M31.6281 4.19057C29.779 3.53837 27.9313 2.88237 26.0849 2.22257C25.2013 1.94119 24.2774 2.10202 23.5144 2.26257L7.24683 5.35554L13.4725 37.931L38.0146 33.2314L32.6725 5.27526C32.6322 4.99388 32.4717 4.6325 32.0297 4.35112C31.9092 4.31112 31.7886 4.23085 31.6281 4.19057Z" fill="url(#paint2_linear_578_328)"/>
<path id="Vector_5" d="M11.5845 28.2911C11.9459 27.8092 12.2673 27.3272 12.5484 26.805L12.6289 26.6845L17.2883 25.1581C18.2924 24.8368 18.8146 23.7523 18.5335 22.7885C18.2121 21.8243 17.248 21.2619 16.2438 21.503C14.4364 21.9449 12.5887 22.3465 10.7409 22.6277L10.5001 22.6676L11.5845 28.2911Z" fill="#5B5BF7"/>
<path id="Vector_6" d="M31.6281 4.19066C29.5396 3.4679 26.6074 2.38321 26.0852 2.22266C27.0893 2.58404 29.3787 5.79755 29.3787 5.79755C29.9412 5.51617 30.7042 3.66845 32.07 4.39148C31.9092 4.31148 31.7889 4.23093 31.6281 4.19066Z" fill="url(#paint3_linear_578_328)"/>
<path id="Vector_7" d="M23.0323 10.9385L14.2356 12.6257C14.1151 12.6657 13.9945 12.5854 13.9945 12.4648C13.9545 12.3443 14.0348 12.224 14.1553 12.224L22.9518 10.5368C23.0723 10.4966 23.1929 10.5771 23.1929 10.6974C23.2329 10.818 23.1526 10.8985 23.0323 10.9385ZM28.8166 17.1647L15.6017 19.6955C15.4811 19.7355 15.3609 19.6552 15.3609 19.5346C15.3206 19.4141 15.4009 19.2938 15.5214 19.2938L28.7363 16.7631C28.8569 16.7231 28.9774 16.8033 28.9774 16.9239C28.9774 17.0444 28.9371 17.1647 28.8166 17.1647ZM29.218 19.3341L16.0031 21.8646C15.8825 21.9046 15.7622 21.8243 15.7622 21.7037C15.722 21.5835 15.8022 21.4629 15.9228 21.4629L29.1377 18.9324C29.2582 18.8922 29.3788 18.9724 29.3788 19.093C29.4188 19.2135 29.3385 19.3341 29.218 19.3341ZM29.6196 21.5432L16.4047 24.0737C16.2842 24.1137 16.1639 24.0334 16.1639 23.9128C16.1236 23.7923 16.2039 23.672 16.3244 23.672L29.5393 21.1413C29.6599 21.1013 29.7804 21.1815 29.7804 21.3021C29.8204 21.3824 29.7402 21.5029 29.6196 21.5432ZM30.0615 23.7123L16.8466 26.2428C16.7261 26.2831 16.6055 26.2025 16.6055 26.0822C16.5655 25.9617 16.6458 25.8411 16.7664 25.8411L29.9813 23.3104C30.1018 23.2701 30.2221 23.3504 30.2221 23.4709C30.2221 23.5915 30.1821 23.672 30.0615 23.7123ZM30.4629 25.8808L17.248 28.4113C17.1275 28.4516 17.0069 28.3713 17.0069 28.2508C16.9669 28.1302 17.0472 28.0097 17.1678 28.0097L30.3826 25.4792C30.5032 25.4392 30.6235 25.5195 30.6235 25.64C30.6638 25.7603 30.5835 25.8808 30.4629 25.8808Z" fill="#BDA1E7"/>
<path id="Vector_8" d="M7.28661 29.9779C9.25488 29.2149 10.9821 27.8491 12.1873 26.0819L12.2673 25.9614L17.0874 24.9972C18.1319 24.7964 18.7746 23.7923 18.5738 22.7881C18.373 21.784 17.4491 21.1412 16.485 21.2618C14.6318 21.5038 12.769 21.6646 10.9018 21.7437L9.37544 21.824L6.28247 21.9848" fill="url(#paint4_radial_578_328)"/>
<path id="Vector_9" d="M7.28661 29.9779C9.25488 29.2149 10.9821 27.8491 12.1873 26.0819L12.2673 25.9614L17.0874 24.9972C18.1319 24.7964 18.7746 23.7923 18.5738 22.7881C18.373 21.784 17.4491 21.1412 16.485 21.2618C14.6318 21.5038 12.769 21.6646 10.9018 21.7437L9.37544 21.824L6.28247 21.9848" fill="url(#paint5_radial_578_328)"/>
<path id="Vector_10" opacity="0.5" d="M17.1274 21.6231C17.0874 21.4623 16.9266 21.3017 16.7258 21.2214H16.525C16.043 21.3014 15.5208 21.342 15.0389 21.382C14.7175 21.5428 14.5167 21.7836 14.5567 22.0247C14.6372 22.3861 15.2397 22.587 15.9628 22.4667C16.6455 22.3861 17.1677 21.9845 17.1274 21.6231Z" fill="url(#paint6_radial_578_328)"/>
<path id="Vector_11" opacity="0.5" d="M17.1274 21.6232C17.1274 21.5832 17.0874 21.543 17.0874 21.5027C17.1676 21.8641 16.6052 22.266 15.9224 22.3865C15.2796 22.5068 14.7174 22.3463 14.5569 22.0652C14.6369 22.4265 15.2396 22.6274 15.9627 22.5068C16.6454 22.3865 17.1676 21.9849 17.1274 21.6232Z" fill="url(#paint7_radial_578_328)"/>
<path id="Vector_12" d="M38.4165 14.6345C37.5329 14.7145 36.8501 15.4378 36.8099 16.3214L36.7296 18.0086L36.6493 16.3214C36.609 15.4378 35.9263 14.7148 35.0424 14.6345C35.9263 14.5542 36.609 13.8312 36.6493 12.9473L36.7296 11.4613L36.8099 12.9473C36.8501 13.8312 37.5329 14.5139 38.4165 14.6345ZM33.7969 10.0955L33.8372 10.4168C33.8772 10.6979 34.1583 10.8585 34.3994 10.7379L34.7208 10.5774L34.4397 10.7782C34.1986 10.9388 34.1986 11.2601 34.4397 11.421L34.7208 11.6218L34.3994 11.461C34.1583 11.3404 33.8372 11.5013 33.8372 11.7824L33.7969 12.1037L33.7566 11.8626C33.7166 11.5815 33.4355 11.421 33.1944 11.5413L32.873 11.7021L33.1541 11.5013C33.3953 11.3404 33.3953 11.0193 33.1541 10.8585L32.873 10.6577L33.1944 10.8185C33.4355 10.9388 33.7566 10.7782 33.7566 10.4971L33.7969 10.0955Z" fill="#FCCD81"/>
</g>
</g>
<defs>
<radialGradient id="paint0_radial_578_328" cx="0" cy="0" r="1" gradientUnits="userSpaceOnUse" gradientTransform="translate(10.7089 24.8046) rotate(-16.7388) scale(12.5496 8.67173)">
<stop offset="0.613" stop-color="#A18085"/>
<stop offset="1" stop-color="#6D565B"/>
</radialGradient>
<radialGradient id="paint1_radial_578_328" cx="0" cy="0" r="1" gradientUnits="userSpaceOnUse" gradientTransform="translate(15.8372 23.5966) rotate(-16.739) scale(9.47572 4.77443)">
<stop offset="0.72" stop-color="#6D565B"/>
<stop offset="1" stop-color="#6D565B" stop-opacity="0"/>
</radialGradient>
<linearGradient id="paint2_linear_578_328" x1="19.1506" y1="34.6013" x2="27.414" y2="6.11719" gradientUnits="userSpaceOnUse">
<stop offset="0.35" stop-color="#BDBDFC"/>
<stop offset="0.79" stop-color="#BDBDFC"/>
<stop offset="0.93" stop-color="#BDBDFC"/>
</linearGradient>
<linearGradient id="paint3_linear_578_328" x1="27.6047" y1="5.64721" x2="28.6618" y2="3.32252" gradientUnits="userSpaceOnUse">
<stop offset="0.264" stop-color="#BDBDFC"/>
<stop offset="1" stop-color="#BDBDFC"/>
</linearGradient>
<radialGradient id="paint4_radial_578_328" cx="0" cy="0" r="1" gradientUnits="userSpaceOnUse" gradientTransform="translate(6.24219 26.2174) rotate(-51.5898) scale(8.70792 5.31189)">
<stop offset="0.613" stop-color="#A18085"/>
<stop offset="1" stop-color="#6D565B"/>
</radialGradient>
<radialGradient id="paint5_radial_578_328" cx="0" cy="0" r="1" gradientUnits="userSpaceOnUse" gradientTransform="translate(14.6219 19.7051) rotate(-9.735) scale(11.3672 6.20604)">
<stop offset="0.613" stop-color="#A18085"/>
<stop offset="1" stop-color="#A18085" stop-opacity="0"/>
</radialGradient>
<radialGradient id="paint6_radial_578_328" cx="0" cy="0" r="1" gradientUnits="userSpaceOnUse" gradientTransform="translate(15.029 21.1205) scale(2.6562)">
<stop offset="0.426" stop-color="#BDBDFC"/>
<stop offset="1" stop-color="#BDBDFC" stop-opacity="0"/>
</radialGradient>
<radialGradient id="paint7_radial_578_328" cx="0" cy="0" r="1" gradientUnits="userSpaceOnUse" gradientTransform="translate(15.0327 21.4089) scale(2.49465)">
<stop offset="0.426" stop-color="#BDBDFC"/>
<stop offset="1" stop-color="#BDBDFC"/>
</radialGradient>
</defs>
</svg>
