<svg width="36" height="36" viewBox="0 0 36 36" fill="none" xmlns="http://www.w3.org/2000/svg">
<g id="linkedin" clip-path="url(#clip0_560_1329)">
<g id="Group">
<path id="Vector" d="M18 35.9998C27.9411 35.9998 36 27.9409 36 17.9998C36 8.05863 27.9411 -0.000244141 18 -0.000244141C8.05888 -0.000244141 0 8.05863 0 17.9998C0 27.9409 8.05888 35.9998 18 35.9998Z" fill="#007AB9"/>
<g id="Group_2">
<path id="Vector_2" d="M28.7548 19.4483V26.8693H24.4523V19.9456C24.4523 18.2071 23.8311 17.0199 22.2733 17.0199C21.0844 17.0199 20.3782 17.8192 20.0663 18.5931C19.9531 18.8697 19.9239 19.2538 19.9239 19.6417V26.8689H15.621C15.621 26.8689 15.6788 15.1425 15.621 13.9287H19.9242V15.7625C19.9155 15.7769 19.9033 15.791 19.8956 15.8048H19.9242V15.7625C20.496 14.8826 21.5157 13.6248 23.8019 13.6248C26.6326 13.6248 28.7548 15.4743 28.7548 19.4483ZM11.1199 7.69104C9.6481 7.69104 8.68518 8.65717 8.68518 9.92652C8.68518 11.1689 9.62019 12.163 11.0634 12.163H11.0914C12.5921 12.163 13.5251 11.1689 13.5251 9.92652C13.4966 8.65717 12.5921 7.69104 11.1199 7.69104ZM8.94091 26.8693H13.2421V13.9287H8.94091V26.8693Z" fill="#F1F2F2"/>
</g>
</g>
</g>
<defs>
<clipPath id="clip0_560_1329">
<rect width="36" height="36" fill="white"/>
</clipPath>
</defs>
</svg>
