<svg width="36" height="36" viewBox="0 0 36 36" fill="none" xmlns="http://www.w3.org/2000/svg">
<g id="twitter" clip-path="url(#clip0_560_1324)">
<g id="Group">
<path id="Vector" d="M18.0003 35.9997C27.9414 35.9997 36.0002 27.9409 36.0002 17.9998C36.0002 8.0588 27.9414 0 18.0003 0C8.05929 0 0.000488281 8.0588 0.000488281 17.9998C0.000488281 27.9409 8.05929 35.9997 18.0003 35.9997Z" fill="#55ACEE"/>
<g id="Group_2">
<path id="Vector_2" d="M29.0257 12.9359C28.2544 13.278 27.4246 13.5093 26.5544 13.6126C27.4429 13.0803 28.1247 12.238 28.4466 11.2328C27.6152 11.7259 26.694 12.0837 25.7144 12.2766C24.9296 11.4407 23.8114 10.9183 22.5731 10.9183C20.1975 10.9183 18.2707 12.8451 18.2707 15.2208C18.2707 15.558 18.3089 15.8863 18.3827 16.2014C14.807 16.022 11.6365 14.3092 9.5143 11.7054C9.14402 12.3407 8.93161 13.0803 8.93161 13.8687C8.93161 15.361 9.69174 16.6785 10.8456 17.4498C10.1406 17.4277 9.47676 17.2342 8.89696 16.9111C8.89664 16.9294 8.89663 16.9477 8.89663 16.9657C8.89663 19.0503 10.3803 20.7891 12.3482 21.1841C11.9875 21.2829 11.6067 21.3352 11.2149 21.3352C10.937 21.3352 10.6678 21.3086 10.4053 21.2585C10.9527 22.9674 12.5413 24.2114 14.4245 24.2464C12.9517 25.4005 11.0968 26.0882 9.08049 26.0882C8.73396 26.0882 8.39063 26.0679 8.05469 26.0278C9.95773 27.249 12.2198 27.961 14.6494 27.961C22.5632 27.961 26.891 21.4051 26.891 15.7191C26.891 15.5327 26.8868 15.3469 26.8785 15.1627C27.7198 14.5563 28.4491 13.7987 29.0257 12.9359Z" fill="#F1F2F2"/>
</g>
</g>
</g>
<defs>
<clipPath id="clip0_560_1324">
<rect width="36" height="36" fill="white"/>
</clipPath>
</defs>
</svg>
